<svg xmlns="http://www.w3.org/2000/svg" xmlns:xlink="http://www.w3.org/1999/xlink" width="80" zoomAndPan="magnify" viewBox="0 0 375 374.999991" height="80" preserveAspectRatio="xMidYMid meet" version="1.0"><defs><clipPath id="id1"><path d="M 3.375 59 L 371.625 59 L 371.625 324 L 3.375 324 Z M 3.375 59 " clip-rule="nonzero"/></clipPath><clipPath id="id2"><path d="M 5 61 L 363.46875 61 L 363.46875 319 L 5 319 Z M 5 61 " clip-rule="nonzero"/></clipPath></defs><g clip-path="url(#id1)"><path fill="#ffffff" d="M 120.664062 323.398438 C 143.570312 321.804688 165.976562 314.402344 185.34375 301.820312 C 190.171875 298.660156 194.804688 295.175781 199.191406 291.375 C 203.59375 287.589844 207.8125 283.371094 211.65625 278.65625 C 215.492188 273.929688 218.972656 268.648438 221.667969 262.695312 C 224.359375 256.765625 226.191406 250.066406 226.578125 243.140625 C 226.976562 236.238281 225.9375 229.515625 224.175781 223.4375 C 222.40625 217.332031 219.957031 211.789062 217.304688 206.640625 C 214.65625 201.488281 211.6875 196.714844 208.957031 192.277344 C 206.203125 187.816406 203.59375 183.574219 201.378906 179.429688 C 199.167969 175.292969 197.335938 171.273438 196.121094 167.34375 L 195.683594 165.875 L 195.324219 164.414062 C 195.1875 163.910156 195.113281 163.488281 195.019531 163.046875 C 194.949219 162.597656 194.855469 162.15625 194.804688 161.707031 C 194.542969 159.90625 194.460938 158.046875 194.542969 156.226562 C 194.691406 152.582031 195.578125 149.070312 196.949219 146.332031 C 197.636719 144.964844 198.4375 143.785156 199.328125 142.839844 C 199.765625 142.355469 200.230469 141.929688 200.71875 141.558594 C 201.203125 141.175781 201.703125 140.839844 202.261719 140.546875 C 203.351562 139.941406 204.546875 139.527344 205.90625 139.277344 C 207.257812 139.027344 208.78125 138.972656 210.414062 139.089844 C 213.6875 139.339844 217.386719 140.453125 220.898438 142.199219 C 222.65625 143.074219 224.378906 144.101562 225.996094 145.25 C 226.414062 145.535156 226.789062 145.828125 227.207031 146.140625 L 228.484375 147.148438 C 228.914062 147.46875 229.332031 147.855469 229.757812 148.207031 C 230.1875 148.558594 230.609375 148.917969 231.035156 149.308594 C 234.429688 152.3125 237.789062 155.847656 241.3125 159.632812 C 244.828125 163.425781 248.558594 167.449219 252.757812 171.417969 L 254.355469 172.898438 L 256.011719 174.367188 L 259.023438 176.964844 C 261.058594 178.707031 263.273438 180.578125 265.859375 182.457031 C 268.425781 184.328125 271.40625 186.160156 274.589844 187.574219 C 276.464844 188.421875 278.390625 189.109375 280.308594 189.664062 C 290.035156 192.738281 295.121094 194.351562 304.117188 200.371094 C 321.179688 212.664062 337.738281 207.363281 345.574219 202.332031 C 353.410156 197.300781 355.796875 198.144531 361.710938 196.378906 C 367.628906 194.609375 371.625 189.503906 371.625 181.785156 C 371.625 174.0625 367.628906 168.957031 361.710938 167.1875 C 355.796875 165.421875 353.410156 166.269531 345.574219 161.234375 C 337.738281 156.203125 321.179688 150.90625 304.117188 163.195312 C 303.625 163.546875 303.15625 163.882812 302.707031 164.210938 C 294.582031 169.183594 284.003906 168.132812 275.074219 160.890625 C 272.949219 159.195312 268.882812 154.964844 268.882812 154.964844 C 265.605469 151.613281 262.394531 147.792969 258.910156 143.808594 C 255.433594 139.824219 251.730469 135.613281 247.421875 131.527344 C 246.898438 131.015625 246.339844 130.507812 245.777344 130.003906 C 245.214844 129.503906 244.679688 128.988281 244.085938 128.5 L 242.320312 127.027344 C 241.707031 126.539062 241.054688 126.019531 240.40625 125.542969 C 237.804688 123.605469 235.0625 121.871094 232.167969 120.347656 C 226.386719 117.316406 219.984375 115.035156 212.828125 114.261719 C 209.253906 113.882812 205.496094 113.925781 201.6875 114.5625 C 197.890625 115.191406 194.046875 116.421875 190.523438 118.277344 C 188.753906 119.1875 187.042969 120.273438 185.453125 121.476562 C 183.847656 122.675781 182.355469 124.007812 181.007812 125.429688 C 178.273438 128.261719 176.089844 131.449219 174.382812 134.726562 C 170.96875 141.308594 169.445312 148.226562 169.089844 155.015625 C 168.925781 158.417969 169.066406 161.8125 169.53125 165.191406 C 169.636719 166.035156 169.789062 166.878906 169.929688 167.722656 C 170.101562 168.5625 170.265625 169.429688 170.460938 170.1875 L 171.035156 172.539062 L 171.703125 174.835938 C 173.5625 180.914062 176.113281 186.457031 178.851562 191.523438 C 184.34375 201.660156 190.453125 210.207031 194.75 218.421875 C 196.9375 222.539062 198.742188 226.609375 199.929688 230.554688 C 201.121094 234.496094 201.679688 238.269531 201.515625 241.828125 C 201.363281 245.359375 200.484375 248.953125 198.902344 252.5625 C 197.328125 256.167969 195.078125 259.75 192.375 263.183594 C 189.65625 266.617188 186.507812 269.890625 183.019531 272.96875 C 179.535156 276.074219 175.832031 278.949219 171.941406 281.574219 C 164.148438 286.804688 155.621094 291.042969 146.679688 294.125 C 137.734375 297.210938 128.382812 299.152344 118.957031 299.871094 C 109.53125 300.601562 100.039062 300.050781 90.832031 298.273438 C 81.59375 296.46875 72.933594 293.402344 65.984375 288.753906 C 65.109375 288.171875 64.273438 287.558594 63.460938 286.941406 L 62.28125 285.992188 L 61.140625 285.003906 C 59.652344 283.652344 58.269531 282.199219 57.050781 280.652344 C 54.601562 277.566406 52.746094 274.171875 51.667969 270.746094 C 51.125 269.023438 50.78125 267.335938 50.632812 265.578125 C 50.480469 263.824219 50.5 262.03125 50.71875 260.203125 C 51.125 256.546875 52.328125 252.75 54.101562 249.011719 C 55.890625 245.273438 58.246094 241.597656 61.003906 238.132812 C 62.386719 236.390625 63.828125 234.726562 65.429688 233.078125 C 67.03125 231.40625 68.691406 229.765625 70.441406 228.175781 C 77.398438 221.789062 85.394531 216.035156 93.875 210.328125 C 102.328125 204.601562 111.308594 198.902344 120.214844 192.394531 C 129.078125 185.878906 137.90625 178.507812 145.660156 169.515625 C 147.601562 167.28125 149.457031 164.925781 151.222656 162.484375 C 152.117188 161.277344 152.933594 159.988281 153.785156 158.742188 C 154.628906 157.464844 155.441406 156.113281 156.21875 154.777344 C 159.308594 149.382812 161.796875 143.65625 163.578125 137.644531 C 165.355469 131.636719 166.46875 125.339844 166.625 118.855469 C 166.769531 112.386719 166 105.714844 163.984375 99.265625 C 163.476562 97.65625 162.917969 96.054688 162.257812 94.492188 C 161.933594 93.707031 161.59375 92.929688 161.222656 92.164062 L 160.671875 91.011719 L 160.039062 89.816406 C 158.339844 86.648438 156.304688 83.738281 154.023438 81.097656 C 149.457031 75.832031 143.949219 71.644531 137.839844 68.609375 C 131.734375 65.585938 124.964844 63.671875 117.804688 63.421875 C 114.234375 63.296875 110.578125 63.597656 106.96875 64.410156 C 103.359375 65.226562 99.804688 66.578125 96.546875 68.417969 C 90.09375 72.015625 85.039062 77.273438 81.394531 82.734375 C 77.730469 88.222656 75.296875 93.886719 73.398438 99.386719 C 72.453125 102.144531 71.640625 104.871094 70.917969 107.558594 C 70.183594 110.242188 69.542969 112.914062 68.933594 115.378906 C 67.710938 120.375 66.457031 125.113281 64.929688 129.46875 C 63.40625 133.824219 61.570312 137.761719 59.257812 140.988281 C 58.105469 142.605469 56.832031 144.042969 55.429688 145.304688 C 54.0625 146.5625 52.605469 147.566406 51.105469 148.316406 C 49.609375 149.0625 48.113281 149.519531 46.730469 149.667969 C 46.382812 149.707031 46.042969 149.71875 45.707031 149.730469 C 45.558594 149.722656 45.414062 149.714844 45.261719 149.71875 L 44.804688 149.675781 C 44.191406 149.605469 43.558594 149.453125 42.964844 149.234375 C 41.769531 148.789062 40.75 148.089844 40.121094 147.367188 C 39.792969 146.988281 39.582031 146.675781 39.390625 146.214844 C 39.195312 145.773438 39.066406 145.265625 39.007812 144.652344 C 38.894531 143.441406 39.136719 141.816406 39.773438 140.121094 C 40.078125 139.269531 40.488281 138.410156 40.949219 137.554688 C 41.417969 136.6875 41.9375 135.890625 42.59375 134.972656 C 43.882812 133.179688 45.460938 131.339844 47.1875 129.355469 C 48.902344 127.375 50.769531 125.25 52.546875 122.820312 C 53.4375 121.621094 54.292969 120.292969 55.078125 118.925781 C 55.871094 117.566406 56.53125 116.148438 57.152344 114.726562 C 58.339844 111.855469 59.214844 108.894531 59.722656 105.894531 C 60.777344 99.898438 60.46875 93.789062 58.988281 88.019531 C 57.519531 82.253906 54.753906 76.804688 50.867188 72.292969 C 46.996094 67.75 42.003906 64.40625 36.71875 62.238281 C 31.417969 60.078125 25.738281 59.070312 20.144531 59.285156 C 14.5625 59.511719 9.042969 60.929688 4.25 63.605469 C 3.644531 63.941406 3.363281 64.675781 3.617188 65.34375 C 3.890625 66.074219 4.710938 66.4375 5.441406 66.164062 C 14.855469 62.589844 25.492188 63.816406 33.808594 68.402344 C 37.964844 70.710938 41.542969 73.867188 44.097656 77.597656 C 46.664062 81.332031 48.300781 85.675781 48.972656 90.144531 C 49.660156 94.605469 49.382812 99.191406 48.226562 103.425781 C 47.660156 105.546875 46.835938 107.566406 45.839844 109.449219 C 45.320312 110.378906 44.789062 111.292969 44.175781 112.144531 C 43.570312 112.988281 42.929688 113.808594 42.179688 114.65625 C 39.273438 118.035156 35.214844 121.339844 31.238281 125.914062 C 30.265625 127.046875 29.230469 128.351562 28.324219 129.71875 C 27.410156 131.089844 26.582031 132.535156 25.855469 134.09375 C 24.410156 137.183594 23.320312 140.738281 23.238281 144.769531 C 23.199219 146.769531 23.433594 148.878906 24.019531 150.9375 C 24.160156 151.453125 24.332031 151.957031 24.515625 152.464844 C 24.714844 152.972656 24.925781 153.480469 25.144531 153.980469 C 25.382812 154.46875 25.628906 154.949219 25.886719 155.425781 C 26.15625 155.894531 26.445312 156.347656 26.734375 156.796875 C 29.132812 160.355469 32.398438 162.960938 35.960938 164.675781 C 37.75 165.535156 39.628906 166.179688 41.582031 166.601562 C 42.074219 166.699219 42.5625 166.796875 43.0625 166.875 L 44.570312 167.058594 C 45.539062 167.132812 46.507812 167.171875 47.46875 167.15625 C 51.324219 167.082031 54.976562 166.207031 58.277344 164.878906 C 61.578125 163.546875 64.601562 161.742188 67.253906 159.648438 C 69.890625 157.589844 72.257812 155.21875 74.3125 152.707031 C 78.4375 147.660156 81.332031 142.140625 83.609375 136.761719 C 85.894531 131.371094 87.550781 126.035156 89.113281 120.949219 C 89.898438 118.375 90.609375 115.992188 91.382812 113.667969 C 92.148438 111.339844 92.957031 109.089844 93.832031 106.941406 C 95.5625 102.644531 97.546875 98.722656 99.875 95.617188 C 102.1875 92.507812 104.8125 90.226562 107.609375 88.871094 C 108.949219 88.21875 110.359375 87.742188 111.871094 87.472656 C 113.382812 87.210938 114.984375 87.140625 116.640625 87.273438 C 119.945312 87.519531 123.449219 88.617188 126.636719 90.386719 C 129.820312 92.148438 132.726562 94.519531 134.914062 97.246094 C 136.011719 98.609375 136.929688 100.046875 137.652344 101.515625 L 137.925781 102.066406 L 138.195312 102.691406 C 138.386719 103.109375 138.550781 103.539062 138.710938 103.96875 C 139.046875 104.824219 139.328125 105.703125 139.585938 106.59375 C 141.617188 113.734375 141.140625 122.078125 138.625 130.082031 C 137.363281 134.078125 135.640625 138.003906 133.503906 141.675781 C 132.957031 142.59375 132.417969 143.484375 131.8125 144.386719 C 131.175781 145.285156 130.597656 146.21875 129.921875 147.101562 C 128.601562 148.890625 127.238281 150.660156 125.742188 152.367188 C 119.808594 159.238281 112.566406 165.496094 104.636719 171.429688 C 96.734375 177.402344 88.117188 183.070312 79.328125 189.207031 C 70.570312 195.339844 61.625 202 53.308594 209.9375 C 51.222656 211.910156 49.199219 213.988281 47.226562 216.136719 C 45.226562 218.285156 43.285156 220.617188 41.460938 223.011719 C 37.808594 227.8125 34.554688 233.050781 31.945312 238.8125 C 29.359375 244.570312 27.421875 250.902344 26.742188 257.664062 C 26.390625 261.035156 26.390625 264.5 26.746094 267.953125 C 27.097656 271.40625 27.855469 274.863281 28.9375 278.113281 C 31.105469 284.644531 34.519531 290.488281 38.640625 295.53125 C 40.710938 298.054688 42.941406 300.40625 45.339844 302.554688 L 47.171875 304.128906 C 47.792969 304.640625 48.425781 305.132812 49.058594 305.632812 C 50.328125 306.597656 51.609375 307.519531 52.921875 308.382812 C 58.164062 311.851562 63.730469 314.53125 69.347656 316.613281 C 74.96875 318.699219 80.640625 320.175781 86.292969 321.285156 C 97.625 323.527344 109.21875 324.230469 120.664062 323.398438 " fill-opacity="1" fill-rule="nonzero"/></g><g clip-path="url(#id2)"><path fill="#222020" d="M 119.152344 318.605469 C 141.453125 317.050781 163.265625 309.835938 182.121094 297.574219 C 186.820312 294.496094 191.332031 291.097656 195.601562 287.398438 C 199.886719 283.707031 203.992188 279.597656 207.738281 275 C 211.472656 270.394531 214.859375 265.25 217.480469 259.445312 C 220.101562 253.664062 221.886719 247.136719 222.261719 240.386719 C 222.648438 233.660156 221.636719 227.109375 219.925781 221.1875 C 218.203125 215.238281 215.816406 209.835938 213.234375 204.816406 C 210.65625 199.792969 207.765625 195.144531 205.105469 190.820312 C 202.429688 186.472656 199.886719 182.335938 197.730469 178.300781 C 195.582031 174.265625 193.796875 170.347656 192.613281 166.519531 L 192.1875 165.089844 L 191.835938 163.664062 C 191.703125 163.171875 191.632812 162.761719 191.539062 162.332031 C 191.472656 161.894531 191.378906 161.464844 191.328125 161.023438 C 191.078125 159.269531 190.996094 157.460938 191.074219 155.6875 C 191.222656 152.132812 192.082031 148.710938 193.417969 146.042969 C 194.085938 144.707031 194.867188 143.558594 195.734375 142.640625 C 196.160156 142.164062 196.613281 141.75 197.085938 141.386719 C 197.5625 141.015625 198.046875 140.6875 198.589844 140.40625 C 199.652344 139.816406 200.816406 139.410156 202.136719 139.167969 C 203.453125 138.921875 204.9375 138.871094 206.527344 138.984375 C 209.714844 139.226562 213.316406 140.3125 216.734375 142.015625 C 218.445312 142.867188 220.121094 143.867188 221.699219 144.988281 C 222.101562 145.265625 222.46875 145.550781 222.875 145.855469 L 224.117188 146.839844 C 224.539062 147.152344 224.945312 147.527344 225.359375 147.867188 C 225.777344 148.214844 226.1875 148.5625 226.601562 148.941406 C 229.90625 151.871094 233.175781 155.3125 236.605469 159.007812 C 240.027344 162.699219 243.660156 166.621094 247.75 170.492188 L 249.304688 171.933594 L 250.914062 173.363281 L 253.847656 175.894531 C 255.828125 177.59375 257.988281 179.417969 260.503906 181.25 C 263 183.070312 265.90625 184.855469 269.003906 186.234375 C 270.832031 187.0625 272.703125 187.730469 274.570312 188.273438 C 284.039062 191.265625 288.992188 192.839844 297.75 198.707031 C 314.359375 210.683594 330.480469 205.523438 338.105469 200.617188 C 345.738281 195.714844 348.058594 196.539062 353.816406 194.8125 C 359.578125 193.09375 363.46875 188.117188 363.46875 180.59375 C 363.46875 173.066406 359.578125 168.089844 353.816406 166.367188 C 348.058594 164.644531 345.738281 165.472656 338.105469 160.566406 C 330.480469 155.664062 314.359375 150.5 297.75 162.476562 C 297.269531 162.816406 296.8125 163.144531 296.375 163.464844 C 288.46875 168.3125 278.167969 167.289062 269.472656 160.230469 C 267.40625 158.578125 263.449219 154.453125 263.449219 154.453125 C 260.253906 151.1875 257.128906 147.464844 253.738281 143.582031 C 250.355469 139.703125 246.75 135.59375 242.554688 131.613281 C 242.046875 131.113281 241.503906 130.621094 240.957031 130.132812 C 240.40625 129.644531 239.886719 129.140625 239.304688 128.664062 L 237.589844 127.230469 C 236.992188 126.75 236.355469 126.246094 235.726562 125.78125 C 233.191406 123.894531 230.523438 122.203125 227.707031 120.71875 C 222.078125 117.765625 215.84375 115.542969 208.875 114.789062 C 205.394531 114.417969 201.738281 114.460938 198.03125 115.078125 C 194.335938 115.691406 190.59375 116.894531 187.160156 118.699219 C 185.4375 119.589844 183.773438 120.644531 182.226562 121.820312 C 180.664062 122.988281 179.214844 124.285156 177.898438 125.671875 C 175.238281 128.433594 173.113281 131.539062 171.449219 134.730469 C 168.125 141.148438 166.644531 147.886719 166.296875 154.503906 C 166.136719 157.820312 166.273438 161.128906 166.726562 164.421875 C 166.828125 165.246094 166.976562 166.066406 167.117188 166.890625 C 167.28125 167.707031 167.441406 168.550781 167.632812 169.289062 L 168.191406 171.582031 L 168.84375 173.820312 C 170.652344 179.742188 173.136719 185.144531 175.800781 190.085938 C 181.144531 199.960938 187.097656 208.292969 191.277344 216.296875 C 193.40625 220.308594 195.164062 224.277344 196.320312 228.121094 C 197.480469 231.964844 198.023438 235.640625 197.863281 239.109375 C 197.714844 242.550781 196.859375 246.050781 195.320312 249.570312 C 193.789062 253.082031 191.597656 256.574219 188.964844 259.921875 C 186.316406 263.265625 183.253906 266.457031 179.855469 269.460938 C 176.46875 272.484375 172.859375 275.285156 169.074219 277.84375 C 161.484375 282.941406 153.183594 287.070312 144.476562 290.078125 C 135.773438 293.082031 126.664062 294.972656 117.492188 295.675781 C 108.316406 296.390625 99.074219 295.851562 90.113281 294.117188 C 81.117188 292.359375 72.6875 289.371094 65.921875 284.839844 C 65.070312 284.273438 64.253906 283.675781 63.464844 283.074219 L 62.316406 282.152344 L 61.207031 281.1875 C 59.757812 279.867188 58.410156 278.453125 57.222656 276.945312 C 54.839844 273.9375 53.035156 270.628906 51.984375 267.289062 C 51.457031 265.609375 51.121094 263.964844 50.976562 262.253906 C 50.824219 260.542969 50.847656 258.800781 51.0625 257.015625 C 51.457031 253.453125 52.628906 249.753906 54.355469 246.109375 C 56.09375 242.46875 58.390625 238.886719 61.074219 235.507812 C 62.417969 233.808594 63.824219 232.1875 65.378906 230.582031 C 66.941406 228.953125 68.554688 227.351562 70.257812 225.804688 C 77.035156 219.578125 84.816406 213.972656 93.074219 208.410156 C 101.304688 202.828125 110.046875 197.277344 118.714844 190.933594 C 127.347656 184.582031 135.9375 177.398438 143.488281 168.636719 C 145.375 166.457031 147.183594 164.160156 148.902344 161.78125 C 149.773438 160.609375 150.566406 159.351562 151.398438 158.136719 C 152.21875 156.890625 153.011719 155.574219 153.765625 154.269531 C 156.773438 149.015625 159.195312 143.4375 160.929688 137.574219 C 162.660156 131.722656 163.746094 125.582031 163.898438 119.265625 C 164.039062 112.957031 163.289062 106.460938 161.328125 100.171875 C 160.832031 98.605469 160.289062 97.046875 159.644531 95.519531 C 159.328125 94.757812 159 93.996094 158.636719 93.25 L 158.101562 92.128906 L 157.488281 90.964844 C 155.832031 87.878906 153.847656 85.039062 151.628906 82.46875 C 147.183594 77.335938 141.824219 73.253906 135.875 70.296875 C 129.929688 67.351562 123.34375 65.484375 116.371094 65.242188 C 112.894531 65.117188 109.335938 65.414062 105.820312 66.203125 C 102.304688 67 98.847656 68.316406 95.675781 70.109375 C 89.390625 73.613281 84.46875 78.738281 80.925781 84.0625 C 77.359375 89.410156 74.984375 94.929688 73.136719 100.292969 C 72.21875 102.976562 71.429688 105.636719 70.722656 108.253906 C 70.011719 110.871094 69.386719 113.476562 68.792969 115.875 C 67.601562 120.746094 66.378906 125.363281 64.894531 129.609375 C 63.414062 133.851562 61.621094 137.691406 59.371094 140.835938 C 58.25 142.414062 57.011719 143.8125 55.644531 145.039062 C 54.3125 146.265625 52.898438 147.242188 51.433594 147.976562 C 49.980469 148.703125 48.523438 149.148438 47.175781 149.292969 C 46.839844 149.332031 46.507812 149.34375 46.183594 149.355469 C 46.039062 149.34375 45.894531 149.339844 45.75 149.34375 L 45.304688 149.300781 C 44.707031 149.230469 44.089844 149.085938 43.511719 148.867188 C 42.347656 148.4375 41.355469 147.753906 40.742188 147.050781 C 40.421875 146.683594 40.21875 146.375 40.03125 145.929688 C 39.839844 145.496094 39.714844 145 39.660156 144.40625 C 39.546875 143.222656 39.785156 141.640625 40.402344 139.988281 C 40.703125 139.160156 41.101562 138.320312 41.546875 137.488281 C 42.003906 136.644531 42.507812 135.863281 43.148438 134.972656 C 44.40625 133.226562 45.941406 131.429688 47.621094 129.5 C 49.292969 127.566406 51.109375 125.496094 52.839844 123.128906 C 53.703125 121.960938 54.539062 120.664062 55.304688 119.332031 C 56.074219 118.007812 56.71875 116.628906 57.324219 115.242188 C 58.480469 112.441406 59.332031 109.554688 59.824219 106.632812 C 60.851562 100.789062 60.550781 94.835938 59.109375 89.214844 C 57.679688 83.59375 54.988281 78.28125 51.207031 73.886719 C 47.433594 69.460938 42.578125 66.203125 37.429688 64.085938 C 32.269531 61.984375 26.738281 61 21.296875 61.207031 C 15.863281 61.429688 10.488281 62.8125 5.820312 65.417969 C 5.234375 65.746094 4.957031 66.464844 5.203125 67.113281 C 5.472656 67.824219 6.269531 68.179688 6.980469 67.910156 C 16.148438 64.429688 26.503906 65.625 34.597656 70.09375 C 38.644531 72.34375 42.125 75.421875 44.613281 79.054688 C 47.113281 82.695312 48.707031 86.929688 49.359375 91.28125 C 50.03125 95.632812 49.757812 100.101562 48.632812 104.226562 C 48.082031 106.292969 47.28125 108.261719 46.3125 110.097656 C 45.804688 111.003906 45.289062 111.894531 44.6875 112.722656 C 44.101562 113.546875 43.476562 114.34375 42.746094 115.171875 C 39.917969 118.464844 35.964844 121.6875 32.09375 126.144531 C 31.148438 127.246094 30.140625 128.519531 29.257812 129.851562 C 28.371094 131.1875 27.5625 132.597656 26.851562 134.113281 C 25.449219 137.125 24.386719 140.589844 24.304688 144.519531 C 24.269531 146.46875 24.5 148.523438 25.066406 150.53125 C 25.203125 151.03125 25.371094 151.523438 25.550781 152.019531 C 25.746094 152.511719 25.949219 153.007812 26.160156 153.496094 C 26.394531 153.96875 26.636719 154.441406 26.882812 154.90625 C 27.148438 155.359375 27.429688 155.800781 27.710938 156.242188 C 30.046875 159.710938 33.226562 162.246094 36.691406 163.917969 C 38.433594 164.757812 40.261719 165.386719 42.167969 165.796875 C 42.640625 165.890625 43.121094 165.984375 43.605469 166.0625 L 45.074219 166.238281 C 46.015625 166.3125 46.960938 166.351562 47.894531 166.335938 C 51.648438 166.261719 55.207031 165.410156 58.421875 164.117188 C 61.628906 162.820312 64.574219 161.0625 67.15625 159.019531 C 69.722656 157.011719 72.03125 154.703125 74.03125 152.253906 C 78.046875 147.335938 80.863281 141.957031 83.082031 136.714844 C 85.304688 131.460938 86.914062 126.261719 88.4375 121.304688 C 89.203125 118.796875 89.894531 116.476562 90.648438 114.210938 C 91.394531 111.941406 92.179688 109.75 93.03125 107.652344 C 94.714844 103.464844 96.648438 99.644531 98.914062 96.617188 C 101.164062 93.585938 103.722656 91.363281 106.445312 90.042969 C 107.75 89.410156 109.121094 88.941406 110.59375 88.679688 C 112.0625 88.425781 113.625 88.355469 115.234375 88.484375 C 118.453125 88.726562 121.867188 89.796875 124.96875 91.519531 C 128.070312 93.238281 130.898438 95.546875 133.027344 98.203125 C 134.09375 99.53125 134.988281 100.933594 135.691406 102.363281 L 135.957031 102.902344 L 136.222656 103.511719 C 136.40625 103.917969 136.566406 104.339844 136.722656 104.757812 C 137.046875 105.589844 137.324219 106.449219 137.574219 107.316406 C 139.550781 114.273438 139.089844 122.402344 136.640625 130.203125 C 135.410156 134.101562 133.734375 137.925781 131.652344 141.503906 C 131.121094 142.402344 130.597656 143.269531 130.007812 144.144531 C 129.386719 145.023438 128.824219 145.929688 128.164062 146.792969 C 126.882812 148.535156 125.550781 150.261719 124.097656 151.925781 C 118.320312 158.621094 111.269531 164.71875 103.550781 170.5 C 95.855469 176.320312 87.46875 181.84375 78.914062 187.824219 C 70.386719 193.804688 61.679688 200.292969 53.582031 208.027344 C 51.550781 209.949219 49.582031 211.976562 47.660156 214.070312 C 45.714844 216.167969 43.820312 218.4375 42.046875 220.773438 C 38.492188 225.449219 35.324219 230.554688 32.785156 236.167969 C 30.265625 241.78125 28.378906 247.949219 27.71875 254.539062 C 27.378906 257.828125 27.375 261.203125 27.722656 264.570312 C 28.0625 267.933594 28.804688 271.304688 29.855469 274.46875 C 31.964844 280.835938 35.289062 286.53125 39.300781 291.445312 C 41.316406 293.90625 43.488281 296.195312 45.824219 298.292969 L 47.605469 299.824219 C 48.210938 300.324219 48.828125 300.804688 49.441406 301.292969 C 50.679688 302.230469 51.925781 303.128906 53.203125 303.972656 C 58.308594 307.351562 63.726562 309.964844 69.195312 311.992188 C 74.667969 314.023438 80.1875 315.464844 85.691406 316.542969 C 96.726562 318.730469 108.007812 319.417969 119.152344 318.605469 " fill-opacity="1" fill-rule="nonzero"/></g></svg>