<svg xmlns="http://www.w3.org/2000/svg" xmlns:xlink="http://www.w3.org/1999/xlink" width="1600" zoomAndPan="magnify" viewBox="0 0 1200 675.000002" height="900" preserveAspectRatio="xMidYMid meet" version="1.0"><defs><g/><clipPath id="id1"><path d="M 933 289 L 1055.316406 289 L 1055.316406 528.703125 L 933 528.703125 Z M 933 289 " clip-rule="nonzero"/></clipPath><clipPath id="id2"><path d="M 932.496094 287.558594 L 1055.316406 287.558594 L 1055.316406 528.703125 L 932.496094 528.703125 Z M 932.496094 287.558594 " clip-rule="nonzero"/></clipPath></defs><g clip-path="url(#id1)"><path fill="#ffffff" d="M 954.011719 337.554688 C 954.589844 339.289062 956.246094 334.335938 956.832031 336.710938 C 957.722656 339.492188 953.257812 339.121094 954.03125 341.789062 C 954.332031 344.953125 954.738281 348.113281 954.675781 351.300781 C 954.855469 353.625 956.417969 355.417969 957.503906 357.269531 C 959.378906 358.636719 962.078125 357.605469 963.640625 356.171875 C 965.394531 354.71875 965.566406 352.269531 967.3125 350.746094 C 968.636719 348.628906 969.550781 346.339844 971.160156 344.359375 C 972.050781 341.789062 973.703125 339.398438 973.992188 336.5625 C 974.308594 334.238281 975.085938 331.980469 975 329.605469 C 975.230469 326.800781 975.234375 323.960938 974.660156 321.195312 C 974.949219 318.675781 977.574219 317.324219 979.054688 315.519531 C 979.894531 314.484375 980.339844 314.613281 981.207031 313.390625 C 983.542969 312.152344 984.574219 310.230469 986.878906 309.109375 C 990.367188 306.753906 994.15625 304.695312 998.3125 303.839844 C 1000.242188 303.050781 1002.523438 303.4375 1004.53125 303.191406 C 1006.449219 303.90625 1008.679688 303.886719 1010.320312 305.160156 C 1012.066406 306.402344 1013.648438 307.851562 1015.238281 309.285156 C 1015.988281 311.355469 1017.761719 312.851562 1018.457031 314.964844 C 1020.261719 318.523438 1021.40625 322.363281 1022.464844 326.199219 C 1023.988281 332.417969 1024.859375 338.871094 1024.222656 345.269531 C 1023.988281 347.894531 1023.257812 350.453125 1022.699219 353.015625 C 1020.015625 362.289062 1013.847656 370.035156 1007.203125 376.816406 C 1003.644531 380.3125 999.761719 383.460938 995.996094 386.730469 C 989.460938 391.851562 983.589844 397.777344 976.890625 402.695312 C 972.679688 406.632812 968.011719 410.054688 963.835938 414.035156 C 959.21875 418.203125 954.941406 422.738281 950.957031 427.503906 C 949.042969 429.535156 947.632812 431.976562 945.847656 434.113281 C 943.3125 437.773438 941.058594 441.632812 938.953125 445.550781 C 936.144531 451.734375 933.753906 458.222656 933.257812 465.054688 C 932.621094 471.429688 933.546875 477.839844 935.195312 483.996094 C 936.210938 489.058594 938.121094 493.886719 940.617188 498.394531 C 942 500.664062 943 503.191406 944.59375 505.320312 C 945.824219 506.550781 946.457031 508.421875 947.714844 509.453125 C 948.714844 510.277344 949.664062 511.394531 950.394531 512.429688 C 952.339844 513.222656 953.160156 515.6875 955.152344 516.472656 C 957.398438 519.042969 960.566406 520.644531 963.699219 521.851562 C 965.480469 522.457031 966.773438 524.046875 968.910156 524.042969 C 970.933594 524.574219 972.523438 524.984375 974.546875 525.679688 C 975.582031 525.894531 976.953125 525.945312 977 526.277344 C 977.972656 525.523438 977 527.144531 977.8125 526.351562 C 979.859375 527.273438 982.339844 526.808594 984.457031 527.683594 C 986.8125 527.960938 989.226562 527.972656 991.53125 528.042969 C 993.417969 528.082031 995.640625 528.359375 997.785156 528.152344 C 1000.210938 527.957031 1002.023438 528.246094 1004.371094 527.496094 C 1005.957031 528.300781 1008.027344 527.300781 1009.53125 526.765625 C 1011.496094 526.746094 1013.140625 526.089844 1015.0625 525.703125 C 1017.253906 525.46875 1019.078125 524.226562 1021.167969 523.609375 C 1022.917969 522.796875 1024.828125 522.246094 1026.453125 521.191406 C 1028.773438 520.1875 1031.097656 518.8125 1033.074219 517.210938 C 1034.683594 516.289062 1036.324219 515.355469 1037.460938 513.835938 C 1039.164062 512.292969 1040.75 510.738281 1042.484375 509.058594 C 1043.710938 507.035156 1045.683594 505.519531 1046.664062 503.34375 C 1047.816406 501.289062 1049.15625 499.28125 1049.941406 497.019531 C 1051.117188 494.253906 1052.367188 491.503906 1052.890625 488.527344 C 1053.292969 486.859375 1053.703125 485.1875 1054.105469 483.519531 C 1054.484375 481.359375 1054.8125 479.082031 1054.804688 476.769531 C 1054.933594 474.492188 1055.3125 472.25 1054.976562 469.957031 C 1054.929688 467.574219 1054.285156 465.21875 1054.046875 462.84375 C 1053.5625 460.066406 1053.078125 457.269531 1051.867188 454.695312 C 1050.695312 451.636719 1049.664062 448.492188 1047.71875 445.816406 C 1046.414062 443.484375 1045.195312 441.074219 1043.378906 439.078125 C 1041.109375 436.039062 1038.210938 433.585938 1035.507812 430.953125 C 1030.640625 427.511719 1025.5625 424.238281 1019.847656 422.410156 C 1013.847656 420.128906 1007.128906 419.867188 1001 421.792969 C 994.480469 423.957031 988.289062 427.144531 982.710938 431.152344 C 976.050781 436.300781 971.785156 444.257812 970.863281 452.605469 C 970.925781 454.121094 969.925781 457.484375 971.765625 457.757812 C 973.101562 456.128906 973.523438 453.898438 974.714844 452.148438 C 976.0625 450.171875 977.289062 448.308594 979.105469 446.714844 C 981.089844 445.175781 982.605469 443.550781 984.773438 442.398438 C 987.246094 441.617188 989.453125 440.132812 991.984375 439.578125 C 994.660156 439.277344 997.253906 438.261719 999.984375 438.492188 C 999.398438 438.960938 1001.824219 437.96875 1001.480469 438.707031 C 1003.441406 438.417969 1005.332031 438.375 1007.285156 438.664062 C 1011.421875 438.605469 1015.421875 439.96875 1019.222656 441.46875 C 1020.347656 442.734375 1022.167969 442.773438 1022.96875 443.652344 C 1023.503906 444.582031 1025.066406 444.230469 1024.800781 445.480469 C 1026.902344 445.523438 1027.285156 448.390625 1029.074219 449.46875 C 1030.527344 451.464844 1031.875 453.601562 1033.007812 455.808594 C 1033.789062 458.054688 1035.027344 460.132812 1035.367188 462.519531 C 1036.664062 467.398438 1037.226562 472.558594 1036.40625 477.566406 C 1035.949219 483.414062 1033.761719 489.046875 1030.730469 494.023438 C 1028.066406 498.34375 1024.203125 501.820312 1019.9375 504.5 C 1018.085938 505.074219 1016.511719 506.203125 1014.640625 506.761719 C 1010.105469 507.960938 1005.574219 509.320312 1000.855469 509.566406 C 996.375 509.839844 991.820312 509.828125 987.394531 509.039062 L 979.714844 507.390625 C 977.851562 506.183594 975.609375 505.707031 973.695312 504.574219 C 970.179688 502.867188 966.8125 500.695312 964.027344 497.957031 C 961.441406 494.96875 958.222656 492.367188 956.679688 488.613281 C 955.449219 486.28125 954.5625 483.78125 953.902344 481.242188 C 953.199219 479.152344 953.011719 476.816406 952.988281 474.679688 C 952.761719 473.253906 952.660156 471.386719 952.796875 470.3125 C 953.238281 468.222656 953.179688 465.625 953.839844 463.410156 C 954.847656 459.136719 955.875 454.808594 957.925781 450.898438 C 959.191406 447.875 961.015625 445.128906 962.605469 442.269531 C 963.5 440.773438 964.46875 439.300781 965.714844 438.074219 C 966.488281 436.269531 968.082031 435.023438 969.003906 433.355469 C 971.125 431.652344 972.601562 429.246094 974.660156 427.441406 C 977.449219 424.671875 980.335938 421.996094 983.292969 419.410156 C 985.101562 417.765625 987.414062 416.933594 989.113281 415.199219 C 990.230469 413.511719 992.300781 413.535156 993.691406 412.160156 C 995.738281 410.8125 997.683594 409.195312 1000.097656 408.570312 C 1002.320312 407.800781 1004.296875 406.605469 1006.410156 405.632812 C 1008.191406 404.359375 1009.757812 403.820312 1011.550781 402.484375 C 1012.976562 401.417969 1014.476562 400.628906 1015.882812 399.289062 C 1017.925781 397.714844 1019.949219 396.078125 1021.707031 394.199219 C 1023.578125 393.660156 1024.074219 390.992188 1025.871094 390.300781 C 1026.296875 389.53125 1026.691406 388.839844 1027.140625 389.015625 C 1026.960938 387.6875 1028.222656 388.710938 1028.472656 387.351562 C 1030.429688 385.386719 1031.9375 383.101562 1033.570312 380.875 C 1035.277344 378.910156 1036.46875 376.695312 1037.757812 374.472656 C 1039.386719 372.628906 1039.792969 370.09375 1041.332031 368.199219 C 1042.347656 366.152344 1042.894531 363.90625 1043.792969 361.804688 C 1044.792969 359.3125 1044.921875 356.621094 1045.964844 354.160156 C 1046.289062 352.046875 1046.949219 350.011719 1046.625 347.859375 C 1046.390625 346.648438 1047.449219 344.363281 1046.992188 344.183594 C 1047.074219 342.222656 1047.28125 340.371094 1046.820312 338.144531 C 1046.355469 335.773438 1046.402344 333.308594 1045.613281 330.984375 C 1044.972656 328.949219 1044.828125 326.238281 1043.574219 324.734375 C 1042.878906 322.988281 1042.484375 321.160156 1041.71875 319.433594 C 1039.4375 315.25 1037.34375 310.914062 1034.359375 307.164062 C 1031.734375 303.726562 1028.484375 300.835938 1025.195312 298.054688 C 1022.582031 296.082031 1019.59375 294.683594 1016.6875 293.210938 C 1007.859375 289.15625 997.558594 287.660156 988.125 290.382812 C 977.691406 293.628906 969.234375 301.449219 963.546875 310.621094 C 960.539062 315.125 958.28125 320.058594 955.976562 324.941406 C 954.359375 328.253906 952.066406 331.660156 952.578125 335.519531 C 952.714844 336.367188 953.203125 337.195312 954.011719 337.554688 Z M 1015.65625 310.75 C 1015.433594 311.3125 1016.183594 310.496094 1015.65625 310.75 Z M 1047 340.277344 C 1046.777344 340.839844 1047.527344 340.023438 1047 340.277344 Z M 1010.847656 341.324219 L 1010.941406 341.6875 Z M 1004.164062 438.492188 C 1003.941406 439.058594 1004.691406 438.238281 1004.164062 438.492188 Z M 1017.535156 441.007812 C 1017.3125 441.570312 1018.0625 440.75 1017.535156 441.007812 Z M 975.117188 451.6875 C 974.894531 452.25 975.644531 451.433594 975.117188 451.6875 Z M 962.996094 466.347656 L 963.269531 466.074219 Z M 940.847656 499.433594 C 940.625 499.996094 941.375 499.179688 940.847656 499.433594 Z M 1018.371094 524.773438 C 1018.148438 525.335938 1018.898438 524.519531 1018.371094 524.773438 Z M 978.667969 526.65625 C 978.449219 527.222656 979.195312 526.402344 978.667969 526.65625 Z M 990.578125 528.125 C 990.359375 528.6875 991.105469 527.867188 990.578125 528.125 Z M 992.878906 528.125 C 992.65625 528.6875 993.40625 527.867188 992.878906 528.125 Z M 992.878906 528.125 " fill-opacity="1" fill-rule="nonzero"/></g><g clip-path="url(#id2)"><path stroke-linecap="butt" transform="matrix(0.208961, 0.000000000000000002, -0.000000000000000002, 0.209416, 926.380739, 222.284237)" fill="none" stroke-linejoin="miter" d="M 132.230451 550.43715 C 134.997119 558.719102 142.923247 535.067039 145.727301 546.408092 C 149.989465 559.689061 128.622567 557.917021 132.32392 570.657053 C 133.763334 585.766021 135.707479 600.856336 135.40838 616.077222 C 136.26829 627.175785 143.745769 635.737533 148.942618 644.579078 C 157.915593 651.107644 170.832939 646.18324 178.310418 639.337571 C 186.703889 632.398638 187.526411 620.703177 195.882495 613.428489 C 202.219658 603.318538 206.593984 592.387852 214.295788 582.930757 C 218.557951 570.657053 226.465386 559.241388 227.848719 545.699276 C 229.362909 534.600713 233.082955 523.819252 232.671693 512.478199 C 233.774622 499.085311 233.793315 485.524546 231.045342 472.318189 C 232.428675 460.286974 244.990841 453.83302 252.075753 445.215312 C 256.094898 440.272254 258.225979 440.887805 262.37598 435.049401 C 273.554812 429.136385 278.489949 419.959086 289.519231 414.605662 C 306.212703 403.357875 324.345591 393.527719 344.235686 389.442702 C 353.470373 385.674786 364.387493 387.521438 373.996054 386.346296 C 383.17466 389.759803 393.848762 389.666538 401.700116 395.747431 C 410.056199 401.6791 417.627147 408.599381 425.235482 415.445049 C 428.824672 425.331164 437.311611 432.475281 440.63909 442.566579 C 449.275578 459.559505 454.752832 477.89545 459.818824 496.212742 C 467.109367 525.908393 471.278062 556.723226 468.230989 587.276917 C 467.109367 599.811765 463.613645 612.029511 460.940446 624.265909 C 448.097875 668.548243 418.580525 705.537235 386.782544 737.918924 C 369.752585 754.613401 351.171048 769.647757 333.150323 785.260358 C 301.875765 809.714502 273.779137 838.011174 241.719444 861.49536 C 221.567636 880.297632 199.228667 896.637701 179.245103 915.645156 C 157.149151 935.547957 136.679551 957.204144 117.611979 979.960861 C 108.452067 989.660446 101.703641 1001.3186 93.160621 1011.521817 C 81.028411 1028.999722 70.242147 1047.428932 60.166243 1066.137938 C 46.725474 1095.665712 35.28493 1126.648423 32.910831 1159.272602 C 29.863758 1189.714374 34.294164 1220.324024 42.182905 1249.721226 C 47.043267 1273.895575 56.184485 1296.950741 68.129759 1318.476357 C 74.747328 1329.313777 79.532915 1341.382299 87.159944 1351.548209 C 93.048459 1357.423919 96.076838 1366.358729 102.096209 1371.283133 C 106.881796 1375.218926 111.424365 1380.553697 114.920086 1385.496755 C 124.229548 1389.283323 128.155225 1401.053396 137.689011 1404.802658 C 148.437888 1417.076363 163.598477 1424.724113 178.590824 1430.487904 C 187.11515 1433.379126 193.302764 1440.970916 203.528217 1440.952263 C 213.211553 1443.489078 220.819889 1445.447648 230.503224 1448.76789 C 235.457055 1449.793808 242.018543 1450.036297 242.242867 1451.621806 C 246.897598 1448.021768 242.242867 1455.762783 246.131156 1451.976214 C 255.926654 1456.378333 267.797153 1454.158621 277.929138 1458.336903 C 289.201438 1459.661269 300.754144 1459.717229 311.783426 1460.052983 C 320.812482 1460.239514 331.449197 1461.56388 341.712037 1460.575269 C 353.320824 1459.642616 361.9947 1461.022942 373.229613 1457.441557 C 380.819254 1461.284085 390.726915 1456.508905 397.923989 1453.953437 C 407.326919 1453.860172 415.196966 1450.72646 424.394266 1448.879808 C 434.881431 1447.760625 443.611388 1441.828957 453.612517 1438.881775 C 461.987293 1435.001941 471.128512 1432.371862 478.905091 1427.335539 C 490.009148 1422.541706 501.131898 1415.975834 510.59091 1408.328084 C 518.292713 1403.925965 526.144067 1399.467887 531.583933 1392.211852 C 539.734386 1384.843898 547.324027 1377.419986 555.624029 1369.399175 C 561.493851 1359.736897 570.934169 1352.499515 575.626287 1342.109768 C 581.140928 1332.298265 587.552867 1322.710599 591.3103 1311.910485 C 596.937103 1298.704127 602.919087 1285.572382 605.424042 1271.358761 C 607.349493 1263.39391 609.312332 1255.410406 611.237783 1247.445554 C 613.051071 1237.13042 614.621342 1226.255693 614.583955 1215.213089 C 615.200847 1204.338363 617.014135 1193.631514 615.406477 1182.682176 C 615.182153 1171.303817 612.097693 1160.05603 610.957377 1148.714977 C 608.639359 1135.452661 606.32134 1122.097079 600.526293 1109.804721 C 594.918184 1095.199385 589.983047 1080.183683 580.673586 1067.406345 C 574.42989 1056.270476 568.597456 1044.761546 559.904886 1035.229839 C 549.043848 1020.717769 535.173123 1009.003655 522.237084 996.431502 C 498.944735 979.998168 474.642927 964.366914 447.294046 955.637288 C 418.580525 944.743909 386.427364 943.494155 357.096951 952.690107 C 325.897168 963.023895 296.267656 978.244781 269.573054 997.382807 C 237.700298 1021.967523 217.28678 1059.96378 212.875067 1099.825341 C 213.174166 1107.062723 208.388579 1123.122997 217.193311 1124.42871 C 223.586556 1116.650389 225.605475 1105.9995 231.307053 1097.642935 C 237.756379 1088.204493 243.626201 1079.306989 252.318771 1071.696546 C 261.815169 1064.347246 269.068324 1056.587578 279.443327 1051.084929 C 291.276438 1047.35432 301.838378 1040.266162 313.951895 1037.617429 C 326.757078 1036.181145 339.169694 1031.331353 352.236589 1032.431882 C 349.432535 1034.670248 361.041321 1029.932374 359.396276 1033.4578 C 368.780513 1032.077475 377.828263 1031.872291 387.175112 1033.252617 C 406.971739 1032.972821 426.114086 1039.482734 444.303055 1046.645504 C 449.68684 1052.689091 458.398103 1052.875622 462.230312 1057.072557 C 464.791348 1061.511983 472.268828 1059.833208 470.997656 1065.802183 C 481.054866 1066.007367 482.886848 1079.698703 491.448562 1084.846944 C 498.402618 1094.378651 504.851944 1104.581868 510.273117 1115.12084 C 514.011856 1125.846341 519.937759 1135.769762 521.564111 1147.166774 C 527.770419 1170.46443 530.462311 1195.105105 526.536635 1219.018311 C 524.349472 1246.941922 513.881001 1273.839616 499.374691 1297.603598 C 486.625588 1318.233868 468.13752 1334.835079 447.724001 1347.63107 C 438.863188 1350.373067 431.329628 1355.763798 422.375346 1358.431184 C 400.671962 1364.157669 378.987272 1370.648929 356.405284 1371.824071 C 334.963612 1373.129785 313.166759 1373.073826 291.986799 1369.30591 L 255.234988 1361.434324 C 246.318093 1355.670533 235.58791 1353.394861 226.427998 1347.985477 C 209.603669 1339.834096 193.489701 1329.463002 180.161094 1316.387216 C 167.785866 1302.117635 152.382258 1289.694706 144.998247 1271.769128 C 139.109732 1260.633259 134.866263 1248.695309 131.707028 1236.570828 C 128.342162 1226.591448 127.444864 1215.436926 127.332702 1205.233709 C 126.248468 1198.425347 125.762431 1189.509191 126.416711 1184.379603 C 128.529099 1174.400223 128.248693 1161.995946 131.407928 1151.419669 C 136.230903 1131.013235 141.147345 1110.345659 150.961537 1091.67396 C 157.018295 1077.236501 165.748253 1064.123409 173.356588 1050.469379 C 177.637445 1043.325262 182.273482 1036.293063 188.236772 1030.436006 C 191.938124 1021.818299 199.565153 1015.867977 203.976866 1007.903126 C 214.127544 999.770397 221.193763 988.28012 231.045342 979.662413 C 244.392642 966.437402 258.207286 953.660065 272.358415 941.311748 C 281.013598 933.458815 292.080267 929.485716 300.212026 921.203764 C 305.558424 913.145647 315.466084 913.257566 322.121041 906.691693 C 331.916539 900.256392 341.226001 892.53403 352.778707 889.549543 C 363.415421 885.874893 372.874432 880.16706 382.987723 875.522452 C 391.51205 869.441558 399.008223 866.867438 407.588631 860.488096 C 414.411831 855.395814 421.590211 851.627899 428.319942 845.229903 C 438.096747 837.712725 447.780083 829.897099 456.192247 820.924983 C 465.146529 818.350863 467.520628 805.610832 476.11973 802.309242 C 478.157343 798.634592 480.045406 795.333003 482.195182 796.17239 C 481.335271 789.830354 487.373336 794.717452 488.569733 788.226192 C 497.935276 778.843709 505.151043 767.931677 512.965009 757.29944 C 521.134156 747.916958 526.835734 737.34068 533.004654 726.727096 C 540.799927 717.922858 542.744071 705.817031 550.109388 696.770303 C 554.96975 686.996106 557.586868 676.270604 561.886418 666.235265 C 566.672005 654.334621 567.288897 641.482672 572.280115 629.731252 C 573.831692 619.639954 576.990927 609.921716 575.43935 599.643887 C 574.317728 593.861443 579.38372 582.94941 577.196558 582.09137 C 577.589125 572.727541 578.579891 563.885996 576.374035 553.25376 C 574.149485 541.93136 574.373809 530.161288 570.597682 519.062725 C 567.531915 509.344487 566.840249 496.399273 560.839571 489.21785 C 557.512093 480.879938 555.624029 472.150312 551.960065 463.905665 C 541.042945 443.928252 531.023122 423.22337 516.741136 405.316445 C 504.178971 388.901763 488.625814 375.098508 472.88572 361.817539 C 460.379635 352.39775 446.078956 345.71996 432.170844 338.687761 C 389.923086 319.325898 340.627803 312.181781 295.482521 325.182955 C 245.551652 340.683637 205.079794 378.027037 177.861769 421.824391 C 163.467621 443.331354 152.662664 466.890152 141.633382 490.206461 C 133.89419 506.024245 122.920989 522.289702 125.369864 540.718912 C 126.024143 544.766623 128.360856 548.721069 132.230451 550.43715 Z M 427.235708 422.439942 C 426.170167 425.12598 429.759357 421.227494 427.235708 422.439942 Z M 577.233945 563.438323 C 576.168404 566.124362 579.757594 562.225875 577.233945 563.438323 Z M 404.223765 568.43734 L 404.672414 570.172073 Z M 372.238847 1032.431882 C 371.173306 1035.136574 374.762496 1031.219434 372.238847 1032.431882 Z M 436.227377 1044.444445 C 435.161836 1047.130483 438.751026 1043.213344 436.227377 1044.444445 Z M 233.232504 1095.441875 C 232.166964 1098.127914 235.756154 1094.229427 233.232504 1095.441875 Z M 175.225958 1165.44676 L 176.534517 1164.141047 Z M 69.232687 1323.438068 C 68.167146 1326.124106 71.756336 1322.22562 69.232687 1323.438068 Z M 440.227828 1444.440383 C 439.162288 1447.126422 442.751478 1443.227935 440.227828 1444.440383 Z M 250.225076 1453.431152 C 249.178229 1456.135844 252.748726 1452.218704 250.225076 1453.431152 Z M 307.222163 1460.444697 C 306.175316 1463.130736 309.745813 1459.213596 307.222163 1460.444697 Z M 318.232752 1460.444697 C 317.167211 1463.130736 320.756401 1459.213596 318.232752 1460.444697 Z M 318.232752 1460.444697 " stroke="#000000" stroke-width="1" stroke-opacity="1" stroke-miterlimit="4"/></g><g fill="#ffffff" fill-opacity="1"><g transform="translate(141.273488, 382.608471)"><g><path d="M 45.410156 2.265625 C 69.980469 2.265625 85.917969 -8.554688 85.917969 -27.859375 C 85.917969 -47.75 68.953125 -54.988281 50.675781 -58.351562 C 34.003906 -61.058594 25.738281 -64.859375 25.738281 -73.195312 C 25.738281 -79.484375 29.46875 -85.847656 44.53125 -85.847656 C 58.058594 -85.847656 63.984375 -79.628906 63.984375 -71.953125 L 82.191406 -71.953125 C 82.191406 -89.792969 69.539062 -101.785156 44.75 -101.785156 C 18.9375 -101.785156 7.53125 -89.429688 7.53125 -73.269531 C 7.53125 -52.648438 27.933594 -46.652344 44.605469 -43.214844 C 58.425781 -40.582031 67.492188 -37.144531 67.492188 -27.933594 C 67.492188 -18.0625 60.253906 -13.089844 45.335938 -13.089844 C 31.296875 -13.089844 23.179688 -20.546875 23.179688 -29.835938 L 4.972656 -29.835938 C 4.972656 -14.257812 16.671875 2.265625 45.410156 2.265625 Z M 45.410156 2.265625 "/></g></g></g><g fill="#ffffff" fill-opacity="1"><g transform="translate(231.799033, 382.608471)"><g><path d="M 28.078125 0 L 28.078125 -38.390625 C 28.078125 -53.085938 37.585938 -61.128906 47.96875 -61.128906 C 58.644531 -61.128906 65.371094 -55.0625 65.371094 -40.144531 L 65.371094 0 L 83.066406 0 L 83.066406 -40.511719 C 83.066406 -64.128906 73.050781 -77.4375 52.867188 -77.4375 C 41.3125 -77.4375 31.515625 -71.660156 27.203125 -63.46875 L 27.203125 -75.171875 L 10.382812 -75.171875 L 10.382812 0 Z M 28.078125 0 "/></g></g></g><g fill="#ffffff" fill-opacity="1"><g transform="translate(324.664495, 382.608471)"><g><path d="M 40.4375 2.265625 C 52.648438 2.265625 62.59375 -3.289062 67.492188 -12.648438 L 67.492188 0 L 84.3125 0 L 84.3125 -75.171875 L 67.492188 -75.171875 L 67.492188 -62.445312 C 62.667969 -71.808594 52.648438 -77.4375 40.363281 -77.4375 C 20.253906 -77.4375 5.046875 -59.523438 5.046875 -37.585938 C 5.046875 -15.503906 20.109375 2.265625 40.4375 2.265625 Z M 44.679688 -14.113281 C 32.757812 -14.113281 22.59375 -22.960938 22.59375 -37.585938 C 22.59375 -51.699219 32.539062 -61.058594 44.679688 -61.058594 C 56.960938 -61.058594 66.761719 -50.675781 66.761719 -37.585938 C 66.761719 -24.277344 57.035156 -14.113281 44.679688 -14.113281 Z M 44.679688 -14.113281 "/></g></g></g><g fill="#ffffff" fill-opacity="1"><g transform="translate(419.358006, 382.608471)"><g><path d="M 79.339844 0 L 52.792969 -45.410156 L 76.121094 -75.171875 L 54.550781 -75.171875 L 28.078125 -39.925781 L 28.078125 -102.957031 L 10.382812 -102.957031 L 10.382812 0 L 28.078125 0 L 28.078125 -20.914062 L 39.925781 -33.855469 L 59.449219 0 Z M 79.339844 0 "/></g></g></g><g fill="#ffffff" fill-opacity="1"><g transform="translate(499.500168, 382.608471)"><g><path d="M 81.898438 -38.902344 C 81.898438 -59.59375 66.6875 -77.4375 44.019531 -77.4375 C 21.425781 -77.4375 5.046875 -59.523438 5.046875 -37.585938 C 5.046875 -15.648438 21.425781 2.265625 44.019531 2.265625 C 62.738281 2.265625 76.121094 -10.089844 79.921875 -23.617188 L 60.617188 -23.617188 C 58.058594 -17.257812 52.574219 -13.527344 43.65625 -13.527344 C 33.269531 -13.527344 24.640625 -20.621094 22.8125 -32.90625 L 81.53125 -32.90625 C 81.824219 -35.683594 81.898438 -37 81.898438 -38.902344 Z M 23.546875 -46.578125 C 26.542969 -57.183594 35.027344 -62.007812 43.945312 -62.007812 C 54.332031 -62.007812 63.105469 -54.988281 63.835938 -46.578125 Z M 23.546875 -46.578125 "/></g></g></g><g fill="#ffffff" fill-opacity="1"><g transform="translate(585.41899, 382.608471)"><g><path d="M 23.472656 -66.101562 L 25.152344 -99.445312 L 8.554688 -99.445312 L 9.945312 -66.101562 Z M 23.472656 -66.101562 "/></g></g></g><g fill="#ffffff" fill-opacity="1"><g transform="translate(617.812206, 382.608471)"><g><path d="M 37.4375 2.265625 C 55.574219 2.265625 69.027344 -5.777344 69.027344 -22.300781 C 69.027344 -38.242188 56.890625 -42.777344 41.3125 -45.117188 C 28.371094 -47.164062 25.59375 -48.992188 25.59375 -54.621094 C 25.59375 -59.15625 28.957031 -62.957031 36.5625 -62.957031 C 44.75 -62.957031 49.136719 -59.011719 49.503906 -53.453125 L 66.835938 -53.304688 C 66.835938 -67.636719 54.621094 -77.4375 36.488281 -77.4375 C 18.132812 -77.4375 8.191406 -68.078125 8.191406 -54.257812 C 8.191406 -38.683594 20.621094 -32.90625 35.097656 -31.003906 C 45.335938 -29.46875 50.964844 -27.640625 50.964844 -21.277344 C 50.964844 -15.574219 46.726562 -11.773438 37.585938 -11.773438 C 27.496094 -11.773438 22.375 -16.964844 22.082031 -23.839844 L 5.117188 -23.910156 C 5.117188 -10.675781 15.355469 2.265625 37.4375 2.265625 Z M 37.4375 2.265625 "/></g></g></g><g fill="#ffffff" fill-opacity="1"><g transform="translate(691.080885, 382.608471)"><g/></g></g><g fill="#ffffff" fill-opacity="1"><g transform="translate(727.568957, 382.608471)"><g><path d="M 59.375 0 C 75.390625 0 91.183594 -9.214844 91.183594 -28.882812 C 91.183594 -40.070312 82.921875 -49.429688 72.902344 -52.648438 C 79.777344 -55.574219 85.480469 -63.761719 85.480469 -72.539062 C 85.480469 -89.136719 73.269531 -99.445312 55.207031 -99.445312 L 11.847656 -99.445312 L 11.847656 0 Z M 30.199219 -83.796875 L 54.402344 -83.796875 C 61.640625 -83.796875 67.125 -78.242188 67.125 -70.929688 C 67.125 -63.542969 61.640625 -57.914062 54.332031 -57.914062 L 30.199219 -57.914062 Z M 30.199219 -44.238281 L 57.914062 -44.238281 C 66.25 -44.238281 72.539062 -37.949219 72.539062 -30.273438 C 72.539062 -21.71875 66.25 -15.722656 57.765625 -15.722656 L 30.199219 -15.722656 Z M 30.199219 -44.238281 "/></g></g></g><g fill="#ffffff" fill-opacity="1"><g transform="translate(823.432426, 382.608471)"><g><path d="M 28.078125 0 L 28.078125 -103.03125 L 10.382812 -103.03125 L 10.382812 0 Z M 28.078125 0 "/></g></g></g><g fill="#ffffff" fill-opacity="1"><g transform="translate(861.821704, 382.608471)"><g><path d="M 44.53125 2.265625 C 67.710938 2.265625 84.3125 -15.429688 84.3125 -37.585938 C 84.3125 -59.59375 67.710938 -77.4375 44.605469 -77.4375 C 21.570312 -77.4375 5.046875 -59.523438 5.046875 -37.585938 C 5.046875 -15.503906 21.644531 2.265625 44.53125 2.265625 Z M 44.679688 -14.1875 C 32.027344 -14.1875 22.59375 -23.984375 22.59375 -37.585938 C 22.59375 -51.113281 32.027344 -61.058594 44.679688 -61.058594 C 57.328125 -61.058594 66.761719 -51.113281 66.761719 -37.585938 C 66.761719 -23.984375 57.328125 -14.1875 44.679688 -14.1875 Z M 44.679688 -14.1875 "/></g></g></g></svg>